<svg width="52" height="59" viewBox="0 0 52 59" fill="none" xmlns="http://www.w3.org/2000/svg">
<path d="M29.0582 54.5253L33.5116 51.4107C39.205 47.425 43.6119 41.8647 46.192 35.4114C48.772 28.9581 49.4132 21.8923 48.0369 15.08C47.9689 14.7443 47.8246 14.4288 47.6151 14.1578C47.4057 13.8868 47.1366 13.6677 46.8289 13.5173L25.9996 3.33334L5.17289 13.5173C4.86463 13.6673 4.59508 13.8863 4.38512 14.1573C4.17517 14.4283 4.03046 14.7441 3.96222 15.08C2.58617 21.8926 3.22774 28.9586 5.8083 35.4119C8.38886 41.8652 12.7963 47.4253 18.4902 51.4107L22.9436 54.5253C23.8398 55.1524 24.9071 55.4886 26.0009 55.4886C27.0947 55.4886 28.162 55.1524 29.0582 54.5253V54.5253Z" stroke="#6A6A6A" stroke-width="5.33333" stroke-linecap="round" stroke-linejoin="round"/>
</svg>
