<svg width="64" height="64" viewBox="0 0 64 64" fill="none" xmlns="http://www.w3.org/2000/svg">
<path d="M42.6668 15.9999C42.6668 10.1089 37.8912 5.33325 32.0002 5.33325C26.1091 5.33325 21.3335 10.1089 21.3335 15.9999V29.3333C21.3335 35.2243 26.1091 39.9999 32.0002 39.9999C37.8912 39.9999 42.6668 35.2243 42.6668 29.3333V15.9999Z" stroke="#6A6A6A" stroke-width="5.33333" stroke-linecap="round" stroke-linejoin="round"/>
<path d="M48 43.4453C46.0001 45.7178 43.5384 47.5374 40.7793 48.7827C38.0202 50.0279 35.0271 50.6702 32 50.6666C28.9729 50.6702 25.9798 50.0279 23.2207 48.7827C20.4616 47.5374 17.9999 45.7178 16 43.4453" stroke="#6A6A6A" stroke-width="5.33333" stroke-linecap="round" stroke-linejoin="round"/>
<path d="M32 50.6667V58.6667" stroke="#6A6A6A" stroke-width="5.33333" stroke-linecap="round" stroke-linejoin="round"/>
<path d="M26.6665 58.6667H37.3332" stroke="#6A6A6A" stroke-width="5.33333" stroke-linecap="round" stroke-linejoin="round"/>
</svg>
